PathFileType	4	(X/Y/Z)	/Users/itak/Documents/Research/Walk-IL/dataset/trc/00004_00004.trc
DataRate	CameraRate	NumFrames	NumMarkers	Units	OrigDataRate	OrigDataStartFrame	OrigNumFrames
100.000000	100.000000	4	53	mm	100.000000	424	566
Frame#	Time	RPSI			LPSI			L3			STRN			T10			C7			CLAV			RBAK			LBAK			LSHO			LUPA			LAEL			LAOL			LWTS			LWPS			LFRA			LIFD			LHPS			LHTS			RSHO			RUPA			RAEL			RAOL			RWTS			RWPS			RFRA			RIFD			RHTS			RHPS			RBHD			LFHD			RFHD			LBHD			LHIP			RHIP			RASI			LASI			LKNE			LTHI			LANK			LTIP			LTOE			LMT1			LMT5			LHEE			RKNE			RTHI			RANK			RTIP			RTOE			RMT1			RMT5			RHEE			
		X1	Y1	Z1	X2	Y2	Z2	X3	Y3	Z3	X4	Y4	Z4	X5	Y5	Z5	X6	Y6	Z6	X7	Y7	Z7	X8	Y8	Z8	X9	Y9	Z9	X10	Y10	Z10	X11	Y11	Z11	X12	Y12	Z12	X13	Y13	Z13	X14	Y14	Z14	X15	Y15	Z15	X16	Y16	Z16	X17	Y17	Z17	X18	Y18	Z18	X19	Y19	Z19	X20	Y20	Z20	X21	Y21	Z21	X22	Y22	Z22	X23	Y23	Z23	X24	Y24	Z24	X25	Y25	Z25	X26	Y26	Z26	X27	Y27	Z27	X28	Y28	Z28	X29	Y29	Z29	X30	Y30	Z30	X31	Y31	Z31	X32	Y32	Z32	X33	Y33	Z33	X34	Y34	Z34	X35	Y35	Z35	X36	Y36	Z36	X37	Y37	Z37	X38	Y38	Z38	X39	Y39	Z39	X40	Y40	Z40	X41	Y41	Z41	X42	Y42	Z42	X43	Y43	Z43	X44	Y44	Z44	X45	Y45	Z45	X46	Y46	Z46	X47	Y47	Z47	X48	Y48	Z48	X49	Y49	Z49	X50	Y50	Z50	X51	Y51	Z51	X52	Y52	Z52	X53	Y53	Z53	

425	4.24	726.2501831054688	1025.21923828125	-201.2525787353516	697.3377075195312	1028.605224609375	-361.92236328125	705.432373046875	1097.952514648438	-292.2713928222656	927.3780517578125	1291.690673828125	-307.0043640136719	677.5938720703125	1239.884643554688	-302.9125671386719	723.8939208984375	1507.53759765625	-317.2348022460938	883.6908569335938	1417.565063476562	-309.2197265625	671.2335205078125	1370.73583984375	-237.4009246826172	707.1889038085938	1467.378295898438	-416.2500305175781	812.264892578125	1475.1455078125	-486.1525268554688	797.2660522460938	1353.209228515625	-569.753662109375	837.955810546875	1141.176879882812	-607.5133056640625	774.5782470703125	1108.919677734375	-529.5589599609375	1016.905883789062	961.8424682617188	-518.3182373046875	966.9022216796875	910.4642944335938	-571.31689453125	898.6773071289062	1042.698608398438	-604.2462768554688	1129.69091796875	817.8042602539062	-479.5389404296875	1039.512329101562	850.367919921875	-555.9700927734375	1083.846801757812	892.373291015625	-519.8140869140625	800.319091796875	1492.089233398438	-140.2842254638672	782.047119140625	1421.187866210938	-69.82357025146484	722.3439331054688	1158.793334960938	-50.37343215942383	726.1453857421875	1129.794799804688	-146.1527709960938	809.5908203125	881.9056396484375	-63.61552429199219	737.986572265625	881.866943359375	-6.271886348724365	724.6941528320312	1084.326782226562	-32.65109252929688	794.9392700195312	695.002685546875	-73.93662261962891	819.5353393554688	767.658935546875	-44.71885681152344	759.5167236328125	775.4359741210938	-1.868029475212097	786.6758422851562	1694.519165039062	-369.4849548339844	970.1920776367188	1691.083618164062	-250.4275360107422	968.5859985351562	1694.562377929688	-349.12255859375	796.78955078125	1684.500854492188	-225.8508911132812	772.967041015625	938.3088989257812	-487.2137451171875	867.1445922851562	928.3221435546875	-123.0790405273438	947.9808349609375	966.4053344726562	-213.8485260009766	902.4682006835938	981.2238159179688	-445.0333557128906	777.5608520507812	494.2754516601562	-444.72509765625	769.8688354492188	635.14892578125	-477.8045654296875	538.3881225585938	53.98497772216797	-430.48876953125	634.8184814453125	281.9344787597656	-453.5574340820312	740.8014526367188	31.42098045349121	-330.811279296875	682.4861450195312	44.52285385131836	-326.2704467773438	662.136474609375	30.90551376342773	-431.8255004882812	464.4861450195312	79.37548828125	-389.2931823730469	1011.438842773438	526.7256469726562	-172.96875	930.4574584960938	777.9047241210938	-128.7462310791016	1083.00146484375	33.74076080322266	-176.7129516601562	1032.424560546875	404.7607116699219	-166.7971649169922	1294.991577148438	105.3866958618164	-238.4324645996094	1231.681396484375	89.55467224121094	-263.1231079101562	1226.595703125	73.969970703125	-167.619140625	1025.629638671875	20.84797859191895	-216.4555969238281	
426	4.25	735.4087524414062	1024.453979492188	-199.254638671875	705.6137084960938	1027.975952148438	-359.77294921875	713.97314453125	1097.09765625	-290.2084655761719	935.6148071289062	1291.052612304688	-306.2122192382812	685.8682250976562	1239.0234375	-300.5795593261719	731.8035888671875	1506.729370117188	-315.2500610351562	891.7479248046875	1416.8828125	-308.1507263183594	679.7468872070312	1369.832885742188	-235.0740814208984	714.5432739257812	1466.554809570312	-414.1830749511719	819.25048828125	1474.306396484375	-484.6984558105469	803.57275390625	1352.286499023438	-568.1018676757812	843.55224609375	1140.108642578125	-605.72705078125	780.5144653320312	1108.125366210938	-527.4282836914062	1022.673095703125	960.9293212890625	-516.6295166015625	972.6012573242188	909.4893188476562	-569.4727783203125	904.2120361328125	1041.605102539062	-602.42041015625	1135.476684570312	816.9053344726562	-477.7070617675781	1045.232666015625	849.3487548828125	-554.0962524414062	1089.60107421875	891.437255859375	-518.0695190429688	809.176513671875	1491.343872070312	-138.7466583251953	791.3214111328125	1420.451538085938	-68.16623687744141	730.9339599609375	1158.198608398438	-48.84378051757812	734.4445190429688	1129.290283203125	-144.6546173095703	816.3324584960938	880.7984008789062	-62.40237426757812	744.944580078125	881.2947998046875	-4.814238548278809	732.9965209960938	1083.808349609375	-31.16365432739258	800.1259155273438	694.0494384765625	-72.83678436279297	825.3167114257812	766.4097900390625	-43.69668579101562	765.56494140625	774.6688232421875	-0.6124327182769775	794.3624267578125	1693.803955078125	-367.9808349609375	978.2506103515625	1690.350830078125	-249.5102996826172	976.3589477539062	1693.892944335938	-348.24609375	804.9351806640625	1683.749389648438	-224.3847961425781	780.49169921875	937.9381103515625	-485.625	876.8356323242188	927.4871826171875	-122.151725769043	957.0849609375	965.7608032226562	-213.4838562011719	910.133056640625	980.5979614257812	-444.3085632324219	783.5648803710938	493.7608642578125	-444.2280883789062	776.4147338867188	634.8744506835938	-477.0607299804688	539.0606689453125	55.88761520385742	-430.5783081054688	638.4767456054688	282.8193359375	-453.3843383789062	740.906494140625	31.4044303894043	-330.8074645996094	682.8341674804688	44.95064926147461	-326.2147521972656	662.6103515625	31.20595169067383	-431.7066650390625	465.4954833984375	82.35811614990234	-389.4779357910156	1019.709838867188	526.0382690429688	-173.1041107177734	939.9939575195312	777.1288452148438	-128.4988403320312	1088.881713867188	32.82849502563477	-177.111572265625	1040.68896484375	403.5975341796875	-167.0830841064453	1301.588134765625	101.7459030151367	-238.9401702880859	1238.223876953125	86.456787109375	-263.6836242675781	1232.750854492188	71.31678771972656	-168.16064453125	1031.408935546875	20.71995544433594	-216.7666320800781	
427	4.26	744.6395874023438	1023.777404785156	-197.2577056884766	714.025634765625	1027.374267578125	-357.6546020507812	722.6588745117188	1096.27587890625	-288.1525268554688	943.89453125	1290.4501953125	-305.3818969726562	694.1975708007812	1238.196044921875	-298.2176208496094	739.7566528320312	1505.975463867188	-313.1970825195312	899.8439331054688	1416.228149414062	-307.0238952636719	688.3180541992188	1368.961059570312	-232.6933441162109	721.9490966796875	1465.767456054688	-412.049072265625	826.2754516601562	1473.482055664062	-483.1859436035156	809.8749389648438	1351.371704101562	-566.3806762695312	849.0451049804688	1139.025390625	-603.8840942382812	786.3209838867188	1107.350219726562	-525.2142333984375	1028.166748046875	959.7462158203125	-515.054443359375	977.9087524414062	908.2999877929688	-567.710693359375	909.5274047851562	1040.417114257812	-600.6018676757812	1140.820922851562	815.5707397460938	-476.0838623046875	1050.477661132812	848.0210571289062	-552.370849609375	1094.985717773438	890.124755859375	-516.4984741210938	818.0750122070312	1490.623046875	-137.1571807861328	800.6705932617188	1419.723022460938	-66.45500183105469	739.6978149414062	1157.584716796875	-47.24541854858398	742.9307861328125	1128.763793945312	-143.0689849853516	823.4006958007812	879.7242431640625	-61.14584350585938	752.2347412109375	880.713134765625	-3.302133083343506	741.5059204101562	1083.264404296875	-29.61192893981934	805.7199096679688	693.13427734375	-71.68318176269531	831.4796752929688	765.2168579101562	-42.6368408203125	771.9589233398438	773.9097290039062	0.684085488319397	802.0716552734375	1693.148315429688	-366.422119140625	986.3360595703125	1689.697509765625	-248.563720703125	984.1368408203125	1693.301635742188	-347.329833984375	813.1088256835938	1683.065551757812	-222.8665771484375	788.31005859375	937.526123046875	-483.9817199707031	886.54833984375	926.7870483398438	-121.1602478027344	966.2715454101562	965.1807250976562	-213.0223999023438	917.9722900390625	979.9883422851562	-443.5195922851562	789.9000854492188	493.1815490722656	-443.6159057617188	783.2640991210938	634.5316162109375	-476.2195434570312	539.8067016601562	57.93777847290039	-430.6939086914062	642.3843994140625	283.7442626953125	-453.1661071777344	741.0126953125	31.40131187438965	-330.8067932128906	683.1875	45.37375640869141	-326.1591796875	663.1448364257812	31.56230735778809	-431.5738525390625	466.6281433105469	85.53963470458984	-389.7254638671875	1028.192749023438	525.4598388671875	-173.1046447753906	949.5589599609375	776.5177612304688	-128.1304931640625	1093.307250976562	31.9442024230957	-177.454345703125	1048.888549804688	402.4417419433594	-167.3280181884766	1307.173706054688	96.54267120361328	-239.141845703125	1243.73388671875	82.22688293457031	-264.0018310546875	1237.63134765625	67.57988739013672	-168.4604949951172	1035.756225585938	20.98420715332031	-217.0954284667969	
428	4.27	753.9061279296875	1023.2353515625	-195.3003082275391	722.5480346679688	1026.819213867188	-355.609375	731.466796875	1095.523559570312	-286.1355895996094	952.2028198242188	1289.907348632812	-304.5133361816406	702.565673828125	1237.440063476562	-295.8531188964844	747.7516479492188	1505.305908203125	-311.0856323242188	907.9755249023438	1415.62841796875	-305.8424072265625	696.9329833984375	1368.15966796875	-230.27734375	729.4100341796875	1465.052734375	-409.8580627441406	833.34814453125	1472.702270507812	-481.6216430664062	816.1820678710938	1350.490966796875	-564.5899658203125	854.4517211914062	1137.953247070312	-601.97607421875	791.9982299804688	1106.620239257812	-522.9092407226562	1033.387939453125	958.297119140625	-513.5968017578125	982.8135986328125	906.904541015625	-566.0338134765625	914.6309814453125	1039.154663085938	-598.7887573242188	1145.71923828125	813.8069458007812	-474.7027282714844	1055.239379882812	846.3943481445312	-550.8070678710938	1099.994995117188	888.446533203125	-515.12255859375	827.0122680664062	1489.952392578125	-135.5151977539062	810.0835571289062	1419.02392578125	-64.69541168212891	748.6453247070312	1156.971557617188	-45.57892227172852	751.5878295898438	1128.238525390625	-141.4058074951172	830.801025390625	878.7030639648438	-59.85395050048828	759.8637084960938	880.1416625976562	-1.739625573158264	750.229736328125	1082.715576171875	-27.99779891967773	811.7354125976562	692.2662963867188	-70.47125244140625	838.050048828125	764.0987548828125	-41.53262329101562	778.721435546875	773.1810302734375	2.029403448104858	809.80419921875	1692.577758789062	-364.8089904785156	994.4523315429688	1689.150390625	-247.5892333984375	991.9168090820312	1692.810791015625	-346.3697204589844	821.315673828125	1682.477172851562	-221.2962036132812	796.4343872070312	937.0801391601562	-482.3065185546875	896.23681640625	926.280517578125	-120.1089324951172	975.5208129882812	964.6956787109375	-212.4452056884766	925.9876098632812	979.4197998046875	-442.660400390625	796.5969848632812	492.5553283691406	-442.8778686523438	790.436279296875	634.1268920898438	-475.2749633789062	540.6592407226562	60.17560195922852	-430.8452453613281	646.566650390625	284.7262573242188	-452.8987426757812	741.121337890625	31.41462516784668	-330.8131713867188	683.5525512695312	45.79087829589844	-326.1022033691406	663.7394409179688	31.97306060791016	-431.4323425292969	467.9053039550781	88.95331573486328	-390.0279846191406	1036.875244140625	525.0118408203125	-172.9386138916016	959.1141357421875	776.1158447265625	-127.5971145629883	1096.515380859375	31.14247703552246	-177.7005920410156	1057.027954101562	401.3695068359375	-167.4999847412109	1311.832641601562	90.07193756103516	-239.110107421875	1248.303833007812	77.10868072509766	-264.1143798828125	1241.417114257812	63.00699615478516	-168.554931640625	1038.898315429688	21.62773323059082	-217.3771362304688	
